<svg width="559" height="168" xmlns="http://www.w3.org/2000/svg" viewBox="990 0 170 170">
 <!-- Created with Method Draw - http://github.com/duopixel/Method-Draw/ -->

 <g>
  <title>background</title>
  <rect fill="#ffffff" id="canvas_background" height="170" width="561" y="-1" x="-1"/>
 </g>
 <g>
  <title>Layer 1</title>
  <g stroke="null" id="svg_5">
   <rect stroke="null" id="svg_14" height="181.960321" width="285.650455" y="-0.787789" x="-5.825241" stroke-opacity="null" stroke-width="null" fill="#ffffff"/>
   <path stroke="null" id="svg_4" d="m83.12128,-0.27801c-46.19811,0 -83.65086,37.18239 -83.65086,83.04825c0,45.86784 37.45275,83.04726 83.65086,83.04726c46.20311,0 83.65186,-37.17942 83.65186,-83.04726c0,-45.86289 -37.44875,-83.04429 -83.65286,-83.04429l0.001,-0.00396zm38.36175,119.77941c-1.49835,2.43962 -4.71481,3.21316 -7.1721,1.71567c-19.64037,-11.91051 -44.36514,-14.60797 -73.48306,-8.00315c-2.80591,0.6347 -5.60283,-1.11072 -6.24213,-3.89744c-0.64229,-2.78672 1.10878,-5.56352 3.92168,-6.19822c31.8649,-7.22763 59.1978,-4.11562 81.24751,9.26262c2.45729,1.49749 3.23643,4.6809 1.7281,7.12052zm10.23872,-22.6131c-1.88792,3.04655 -5.9035,4.00852 -8.97012,2.13417c-22.48523,-13.72138 -56.76048,-17.69518 -83.35619,-9.68013c-3.4492,1.03436 -7.09218,-0.89552 -8.13903,-4.31397c-1.03886,-3.42439 0.906,-7.03424 4.34921,-8.07554c30.37954,-9.15155 68.14694,-4.71858 93.96849,11.03482c3.06663,1.87435 4.03556,5.86104 2.14764,8.90164l0,-0.00099zm0.87903,-23.5473c-26.9603,-15.89819 -71.44131,-17.35998 -97.18196,-9.60377c-4.13344,1.2446 -8.50463,-1.07204 -9.75725,-5.17576c-1.25262,-4.10571 1.07881,-8.44248 5.21526,-9.69006c29.54845,-8.9056 78.66934,-7.18498 109.70915,11.1092c3.7259,2.1907 4.94456,6.95788 2.73699,10.64409c-2.19758,3.69116 -7.01228,4.908 -10.7182,2.7163l-0.00399,0zm94.45596,3.04655c-14.44409,-3.41943 -17.01127,-5.81938 -17.01127,-10.86226c0,-4.7642 4.51503,-7.97042 11.23763,-7.97042c6.51282,0 12.96571,2.43467 19.73825,7.4468c0.19978,0.15173 0.4595,0.21222 0.70922,0.17256c0.25972,-0.03769 0.47947,-0.17554 0.62931,-0.38281l7.05223,-9.86955c0.28968,-0.4066 0.20977,-0.96692 -0.1798,-1.27733c-8.06112,-6.41938 -17.13113,-9.5403 -27.73945,-9.5403c-15.59282,0 -26.49082,9.29138 -26.49082,22.58533c0,14.25591 9.39965,19.30374 25.64176,23.20019c13.81478,3.1606 16.15221,5.80848 16.15221,10.54095c0,5.24617 -4.71481,8.50892 -12.30645,8.50892c-8.43071,0 -15.31313,-2.82639 -23.00466,-9.43122c-0.18979,-0.16859 -0.4495,-0.23801 -0.68924,-0.22809c-0.25971,0.01983 -0.48946,0.13884 -0.64928,0.32726l-7.91129,9.34197c-0.32963,0.39668 -0.28968,0.97188 0.0899,1.30906c8.95014,7.93373 19.95802,12.11877 31.84493,12.11877c16.80149,0 27.65953,-9.11387 27.65953,-23.22598c0.02997,-11.90753 -7.15212,-18.50244 -24.74275,-22.75095l-0.02996,-0.0129zm62.79083,-14.14186c-7.28198,0 -13.2554,2.84821 -18.18996,8.68445l0,-6.56912c0,-0.51867 -0.41954,-0.94114 -0.93897,-0.94114l-12.93575,0c-0.51943,0 -0.93896,0.42247 -0.93896,0.94114l0,72.99126c0,0.51569 0.41953,0.94213 0.93896,0.94213l12.93575,0c0.51943,0 0.93897,-0.42644 0.93897,-0.94213l0,-23.03755c4.93456,5.48419 10.90798,8.17173 18.18996,8.17173c13.53509,0 27.24,-10.34359 27.24,-30.11741c0.01998,-19.77778 -13.68493,-30.12435 -27.23001,-30.12435l-0.00999,0.00099zm12.19657,30.12336c0,10.06492 -6.24313,17.09619 -15.19327,17.09619c-8.84026,0 -15.51291,-7.34861 -15.51291,-17.09619c0,-9.74856 6.67265,-17.09519 15.51291,-17.09519c8.80031,-0.00099 15.19327,7.18696 15.19327,17.0942l0,0.00099zm50.15475,-30.12336c-17.4308,0 -31.08576,13.32469 -31.08576,30.33856c0,16.8314 13.56506,30.0113 30.87599,30.0113c17.49074,0 31.18565,-13.27907 31.18565,-30.2265c0,-16.88991 -13.60501,-30.12138 -30.97588,-30.12138l0,-0.00198zm0,47.31872c-9.26979,0 -16.26209,-7.3982 -16.26209,-17.20032c0,-9.84674 6.75257,-16.99205 16.05232,-16.99205c9.32973,0 16.36198,7.39522 16.36198,17.20726c0,9.84476 -6.79252,16.98511 -16.15221,16.98511zm68.19489,-46.14453l-14.23433,0l0,-14.44533c0,-0.51767 -0.41953,-0.94015 -0.93896,-0.94015l-12.93575,0c-0.51943,0 -0.94896,0.42248 -0.94896,0.94015l0,14.44533l-6.21315,0c-0.51943,0 -0.93897,0.42247 -0.93897,0.94114l0,11.03482c0,0.51767 0.41954,0.94114 0.93897,0.94114l6.21315,0l0,28.55645c0,11.53365 5.78363,17.38477 17.20106,17.38477c4.63489,0 8.48065,-0.95204 12.10666,-2.99498c0.29967,-0.15867 0.47947,-0.47602 0.47947,-0.8132l0,-10.51219c0,-0.31735 -0.16981,-0.62478 -0.4495,-0.79337c-0.27969,-0.17851 -0.62931,-0.18843 -0.91899,-0.03967c-2.48726,1.23964 -4.89461,1.81484 -7.59164,1.81484c-4.14543,0 -6.00339,-1.87434 -6.00339,-6.05938l0,-26.53831l14.23433,0c0.51942,0 0.93896,-0.42248 0.93896,-0.94114l0,-11.03383c0.01998,-0.51867 -0.39956,-0.94114 -0.92898,-0.94114l-0.00998,-0.00595zm49.58538,0.05653l0,-1.77418c0,-5.2194 2.01777,-7.54696 6.5328,-7.54696c2.69703,0 4.86464,0.53156 7.29197,1.33485c0.29967,0.09322 0.60933,0.04661 0.84906,-0.1309c0.24973,-0.17752 0.38957,-0.46214 0.38957,-0.76362l0,-10.81962c0,-0.41355 -0.25971,-0.77949 -0.66926,-0.90147c-2.55718,-0.75668 -5.83357,-1.53319 -10.74816,-1.53319c-11.93685,0 -18.25989,6.67821 -18.25989,19.30572l0,2.7173l-6.21315,0c-0.51943,0 -0.94896,0.42248 -0.94896,0.94015l0,11.09135c0,0.51767 0.42953,0.94114 0.94896,0.94114l6.21315,0l0,44.03713c0,0.52561 0.42953,0.94213 0.94896,0.94213l12.92576,0c0.52942,0 0.94896,-0.41652 0.94896,-0.94213l0,-44.03416l12.07669,0l18.49963,44.03416c-2.09769,4.6214 -4.16542,5.54369 -6.98231,5.54369c-2.27749,0 -4.68484,-0.67437 -7.13215,-2.01318c-0.22974,-0.11901 -0.50944,-0.13884 -0.74917,-0.06942c-0.24973,0.08925 -0.4595,0.26776 -0.55939,0.50577l-4.38516,9.55022c-0.20977,0.45619 -0.02997,0.9818 0.40954,1.21981c4.57496,2.45946 8.70042,3.51068 13.8048,3.51068c9.54948,0 14.83366,-4.42305 19.47854,-16.30381l22.43529,-57.5562c0.11987,-0.28958 0.07991,-0.61684 -0.09989,-0.8737c-0.16981,-0.25487 -0.45949,-0.40859 -0.76915,-0.40859l-13.46517,0c-0.40955,0 -0.76915,0.25487 -0.89901,0.63073l-13.79481,39.10732l-15.10336,-39.1331c-0.13985,-0.36396 -0.48946,-0.60495 -0.87903,-0.60495l-22.09566,0l0,-0.00297zm-28.74834,-0.05653l-12.93575,0c-0.51943,0 -0.94895,0.42247 -0.94895,0.94114l0,56.01309c0,0.52561 0.42952,0.94213 0.94895,0.94213l12.93575,0c0.51943,0 0.94896,-0.41652 0.94896,-0.94213l0,-56.00912c0,-0.51867 -0.41954,-0.94114 -0.94896,-0.94114l0,-0.00397zm-6.39295,-25.50593c-5.12436,0 -9.27978,4.1176 -9.27978,9.20411c0,5.08948 4.15542,9.21205 9.27978,9.21205s9.26978,-4.12257 9.26978,-9.21205c0,-5.08552 -4.15542,-9.20411 -9.26978,-9.20411zm113.2952,43.51648c-5.11437,0 -9.09998,-4.08091 -9.09998,-9.03651s4.03556,-9.08313 9.14993,-9.08313s9.09997,4.07992 9.09997,9.03156c0,4.9556 -4.03555,9.08808 -9.14992,9.08808zm0.04995,-17.22114c-4.66487,0 -8.19098,3.67926 -8.19098,8.18463c0,4.50338 3.50614,8.13306 8.14103,8.13306c4.66486,0 8.19098,-3.67629 8.19098,-8.18463c0,-4.50338 -3.50614,-8.13306 -8.14103,-8.13306zm2.01777,9.06229l2.57716,3.57811l-2.1776,0l-2.31744,-3.28257l-1.98781,0l0,3.28257l-1.818,0l0,-9.48476l4.25531,0c2.22755,0 3.68594,1.12758 3.68594,3.02572c0.00999,1.55501 -0.89901,2.50507 -2.20757,2.88093l-0.00999,0zm-1.5383,-4.27925l-2.36739,0l0,2.99994l2.36739,0c1.1787,0 1.88792,-0.5742 1.88792,-1.50146c0,-0.97584 -0.70922,-1.49848 -1.88792,-1.49848z" fill="#9373d8"/>
   <polyline stroke-linecap="round" id="svg_6" points="103.73203669115543,24.934342953125395 103.73203669115543,24.934342953125395 101.82669291544977,24.934342953125395 96.1106615883329,23.028999177419735 95.15798970048007,22.076327289566905 90.39463026121598,21.12365540171413 87.53661459765755,19.21831162600847 84.67859893409911,17.31296785030287 82.77325515839345,16.36029596245004 80.86791138268785,15.407624074597207 80.86791138268785,14.454952186744379 79.91523949483502,14.454952186744379 79.91523949483502,13.502280298891606 79.91523949483502,13.502280298891606 79.91523949483502,13.502280298891606 80.86791138268785,13.502280298891606 80.86791138268785,14.454952186744379 " opacity="0.5" fill-opacity="null" stroke-opacity="null" stroke-width="null" stroke="null" fill="none"/>
   <polyline stroke-linecap="round" id="svg_7" points="125.64349011177019,17.31296785030287 126.59616199962302,17.31296785030287 127.5488338874758,17.31296785030287 131.35952143888704,17.31296785030287 135.1702089902983,17.31296785030287 138.98089654170957,18.26563973815564 152.31830297164902,22.076327289566905 158.03433429876594,23.028999177419735 162.79769373802998,24.934342953125395 165.6557094015884,25.887014840978168 167.56105317729407,26.839686728830998 168.5137250651469,27.792358616683828 169.46639695299973,27.792358616683828 169.46639695299973,27.792358616683828 169.46639695299973,28.745030504536658 " opacity="0.5" fill-opacity="null" stroke-opacity="null" stroke-width="null" stroke="null" fill="none"/>
   <polyline stroke-linecap="round" id="svg_8" points="76.10455194342376,20.1709835138613 76.10455194342376,20.1709835138613 78.96256760698219,20.1709835138613 82.77325515839345,21.12365540171413 89.44195837336315,23.028999177419735 99.92134913974417,26.839686728830998 107.54272424256669,30.65037428024226 113.25875556968356,33.508389943800694 118.02211500894765,35.413733719506354 120.88013067250608,36.366405607359184 121.83280256035891,37.31907749521196 122.78547444821174,37.31907749521196 121.83280256035891,37.31907749521196 113.25875556968356,34.461061831653524 101.82669291544977,28.745030504536658 88.48928648551038,22.076327289566905 80.86791138268785,18.26563973815564 75.15188005557093,16.36029596245004 73.24653627986532,15.407624074597207 72.2938643920125,14.454952186744379 73.24653627986532,14.454952186744379 75.15188005557093,14.454952186744379 78.00989571912936,15.407624074597207 85.63127082195189,17.31296785030287 89.44195837336315,19.21831162600847 94.20531781262724,21.12365540171413 96.1106615883329,22.076327289566905 96.1106615883329,22.076327289566905 93.25264592477441,20.1709835138613 90.39463026121598,17.31296785030287 88.48928648551038,15.407624074597207 87.53661459765755,15.407624074597207 87.53661459765755,14.454952186744379 88.48928648551038,14.454952186744379 90.39463026121598,14.454952186744379 97.06333347618568,16.36029596245004 104.6847085790082,20.1709835138613 110.40073990612512,22.076327289566905 114.21142745753639,23.028999177419735 117.06944312109482,23.981671065272565 117.06944312109482,23.981671065272565 116.11677123324199,23.981671065272565 113.25875556968356,22.076327289566905 110.40073990612512,20.1709835138613 108.49539613041946,19.21831162600847 106.59005235471386,18.26563973815564 " opacity="0.5" fill-opacity="null" stroke-opacity="null" stroke-width="null" stroke="null" fill="none"/>
   <rect stroke="null" id="svg_11" height="107.651917" width="351.535927" y="31.603052" x="185.661819" stroke-opacity="null" stroke-width="null" fill="#ffffff"/>
   <rect id="svg_12" height="42.870235" width="16.195422" y="87.810688" x="319.988555" stroke-opacity="null" stroke-width="null" stroke="null" fill="none"/>
   <text stroke="null" transform="matrix(4.741678134487416,0,0,4.210899313394862,-849.151822405853,-46.19258032336074) " font-weight="bold" xml:space="preserve" text-anchor="start" font-family="'Trebuchet MS', Gadget, sans-serif" font-size="24" id="svg_10" y="39.373439" x="218.304717" stroke-opacity="null" stroke-width="0" fill="#9373d8">Settify</text>
  </g>
 </g>
</svg>
