<svg class="credijusto_svg" viewBox="0 0 170 50">
  <g class="credijusto_svg--logotype" transform="matrix(0.98272,0,0,0.98272,4.01147,-0.723016)">
    <path d="M57.879,18.801C60.179,18.662 62.254,20.247 62.726,22.501L66.814,22.501C66.087,18.066 62.433,15.385 57.966,15.385C52.518,15.385 48.565,18.959 48.565,25.032C48.565,31.104 52.566,34.678 58.006,34.678C62.473,34.678 66.087,32.006 66.814,27.617L62.726,27.617C62.238,29.835 60.185,31.381 57.919,31.239C54.851,31.239 52.471,29.08 52.471,25.04C52.471,21.165 54.645,18.801 57.879,18.801ZM72.554,22.889L72.554,21.426L69.06,21.426L69.06,34.386L72.673,34.386L72.673,27.799C72.673,26.036 73.993,24.826 76.073,24.826L76.073,21.3C74.12,21.3 73.1,22.027 72.547,22.889L72.554,22.889ZM83.189,21.165C79.362,21.165 76.682,23.703 76.682,27.926C76.682,32.148 79.362,34.686 83.316,34.686C86.297,34.686 88.764,32.923 89.23,30.464L85.53,30.464C85.104,31.321 84.18,31.823 83.229,31.713C83.181,31.716 83.133,31.717 83.085,31.717C81.692,31.717 80.547,30.571 80.547,29.179C80.547,29.149 80.547,29.118 80.548,29.088L89.309,29.088L89.309,27.625C89.309,23.577 86.882,21.165 83.181,21.165L83.189,21.165ZM80.509,26.637C80.508,26.604 80.507,26.572 80.507,26.539C80.507,25.151 81.649,24.009 83.037,24.009C83.075,24.009 83.112,24.01 83.15,24.012C84.731,24.012 85.577,25.047 85.656,26.637L80.509,26.637ZM100.545,22.549L100.506,22.549C99.549,21.603 98.236,21.103 96.892,21.173C93.279,21.173 90.725,23.846 90.725,27.933C90.725,32.021 93.279,34.694 96.892,34.694C98.34,34.774 99.749,34.191 100.719,33.113L100.719,34.449L104.127,34.449L104.127,14.879L100.553,14.879L100.545,22.549ZM100.498,28.163C100.498,30.274 99.264,31.476 97.477,31.476C95.69,31.476 94.37,30.187 94.37,27.902C94.37,25.617 95.651,24.288 97.477,24.288C99.304,24.288 100.498,25.538 100.498,27.601L100.498,28.163ZM109.195,18.817C110.401,18.817 111.393,17.824 111.393,16.619C111.393,15.413 110.401,14.42 109.195,14.42C107.989,14.42 106.997,15.413 106.997,16.619C106.997,17.824 107.989,18.817 109.195,18.817ZM111.022,21.402L107.408,21.402L107.408,34.37L111.022,34.37L111.022,21.402ZM113.868,35.635C113.87,35.668 113.871,35.702 113.871,35.736C113.871,36.82 112.979,37.712 111.894,37.712C111.843,37.712 111.792,37.71 111.741,37.707C111.454,37.708 111.168,37.679 110.887,37.62L110.887,40.782C111.31,40.838 111.735,40.867 112.16,40.869C112.274,40.877 112.389,40.881 112.503,40.881C115.24,40.881 117.492,38.629 117.492,35.892C117.492,35.785 117.489,35.678 117.482,35.572L117.482,21.339L113.86,21.339L113.868,35.635ZM115.679,14.405C115.658,14.404 115.637,14.404 115.616,14.404C114.41,14.404 113.418,15.396 113.418,16.602C113.418,17.808 114.41,18.8 115.616,18.8C116.821,18.8 117.813,17.808 117.814,16.603C117.814,16.592 117.814,16.582 117.814,16.571C117.814,15.394 116.856,14.422 115.679,14.405ZM128.014,28.748C128.014,30.211 127.223,31.247 125.84,31.247C124.456,31.247 123.8,30.385 123.8,28.795L123.8,21.426L120.186,21.426L120.186,29.562C120.186,32.725 121.973,34.647 124.93,34.647C126.241,34.766 127.518,34.158 128.251,33.065L128.251,34.354L131.659,34.354L131.659,21.426L128.014,21.426L128.014,28.748ZM139.582,26.463C138.048,26.075 137.067,25.949 137.067,25.04C137.067,24.352 137.581,23.917 138.514,23.917C138.552,23.914 138.59,23.912 138.628,23.912C139.401,23.912 140.048,24.521 140.096,25.293L143.709,25.293C143.496,22.92 141.756,21.157 138.522,21.157C135.288,21.157 133.375,22.739 133.375,25.245C133.375,27.918 135.209,28.479 137.929,29.199C139.803,29.633 140.301,29.887 140.301,30.661C140.301,31.436 139.661,31.824 138.72,31.824C137.573,31.824 136.98,31.262 136.886,30.4L133.272,30.4C133.525,33.113 135.439,34.623 138.712,34.623C141.986,34.623 143.986,32.947 143.986,30.313C143.97,27.926 142.136,27.151 139.59,26.463L139.582,26.463ZM151.197,17.093L147.584,17.093L147.544,21.402L145.172,21.402L145.172,24.565L147.544,24.565L147.505,30.25C147.457,33.263 149.379,34.599 152.186,34.599C152.854,34.601 153.522,34.564 154.186,34.488L154.186,31.199C153.822,31.278 153.451,31.321 153.079,31.326C153.02,31.332 152.961,31.335 152.902,31.335C151.943,31.335 151.154,30.546 151.154,29.587C151.154,29.521 151.158,29.454 151.166,29.388L151.213,24.565L154.186,24.565L154.186,21.402L151.213,21.402L151.197,17.093ZM162.093,21.165C161.983,21.159 161.873,21.157 161.762,21.157C158.21,21.157 155.286,24.08 155.286,27.632C155.286,27.73 155.289,27.828 155.293,27.926C155.417,31.571 158.45,34.502 162.097,34.502C165.744,34.502 168.777,31.571 168.901,27.926C168.905,27.831 168.907,27.736 168.907,27.64C168.907,24.084 165.98,21.157 162.423,21.157C162.313,21.157 162.203,21.159 162.093,21.165ZM162.093,31.5C160.219,31.5 158.93,30.163 158.93,27.926C158.93,25.688 160.203,24.312 162.093,24.312C163.983,24.312 165.256,25.648 165.256,27.926C165.256,30.203 163.959,31.507 162.093,31.507L162.093,31.5Z"/>
    </g>
    <g class="credijusto_svg--isotype" transform="matrix(1.125,0,0,1.125,1.16573e-16,-2.99695)">
      <path d="M19.973,5.233C20.101,10.302 24.189,14.456 29.256,14.666C29.124,9.598 25.038,5.446 19.973,5.233ZM10.066,15.267C10.214,20.34 14.309,24.487 19.38,24.7C19.263,19.614 15.149,15.448 10.066,15.267ZM0.198,25.3C0.341,30.366 4.425,34.513 9.488,34.733C9.36,29.661 5.267,25.506 0.198,25.3ZM19.965,25.3C20.109,30.366 24.193,34.513 29.256,34.733C29.139,29.66 25.044,25.498 19.973,25.3L19.965,25.3ZM10.066,35.334C10.214,40.407 14.309,44.555 19.38,44.767C19.278,39.676 15.155,35.501 10.066,35.334ZM29.888,15.267C30.033,20.341 34.131,24.491 39.203,24.7C39.07,19.621 34.965,15.464 29.888,15.267Z"/>
      <path d="M10.105,34.733C15.177,34.525 19.275,30.375 19.42,25.3C14.343,25.498 10.238,29.654 10.105,34.733ZM0.198,24.7C5.267,24.494 9.36,20.339 9.488,15.267C4.425,15.487 0.341,19.634 0.198,24.7ZM19.973,44.767C25.046,44.573 29.143,40.41 29.256,35.334C24.189,35.544 20.101,39.698 19.973,44.767ZM19.973,24.7C25.052,24.521 29.159,20.348 29.256,15.267C24.197,15.495 20.12,19.638 19.973,24.7ZM10.105,14.666C15.184,14.472 19.29,10.313 19.42,5.233C14.343,5.43 10.238,9.587 10.105,14.666ZM29.873,34.733C34.957,34.548 39.073,30.387 39.203,25.3C34.131,25.509 30.033,29.659 29.888,34.733L29.873,34.733Z" />
    </g>
</svg>
